<mxfile host="app.diagrams.net" agent="Mozilla/5.0 (X11; Linux x86_64) AppleWebKit/537.36 (KHTML, like Gecko) Chrome/127.0.0.0 Safari/537.36" version="24.7.6">
  <diagram name="Page-1" id="efa7a0a1-bf9b-a30e-e6df-94a7791c09e9">
    <mxGraphModel grid="1" page="1" gridSize="10" guides="1" tooltips="1" connect="1" arrows="1" fold="1" pageScale="1" pageWidth="826" pageHeight="1169" background="none" math="0" shadow="0">
      <root>
        <mxCell id="0" />
        <mxCell id="1" parent="0" />
        <mxCell id="19" value="&lt;p style=&quot;margin: 0px; margin-top: 4px; text-align: center; text-decoration: underline;&quot;&gt;&lt;b&gt;Comment&lt;/b&gt;&lt;/p&gt;&lt;hr&gt;&lt;p style=&quot;margin: 0px; margin-left: 8px;&quot;&gt;Comment_id&lt;br&gt;&lt;/p&gt;&lt;p style=&quot;margin: 0px; margin-left: 8px;&quot;&gt;Content&lt;/p&gt;&lt;p style=&quot;margin: 0px; margin-left: 8px;&quot;&gt;Created_date&lt;/p&gt;&lt;p style=&quot;margin: 0px; margin-left: 8px;&quot;&gt;Publication_id&lt;br&gt;&lt;/p&gt;&lt;p style=&quot;margin: 0px; margin-left: 8px;&quot;&gt;User_id&lt;/p&gt;" style="verticalAlign=top;align=left;overflow=fill;fontSize=12;fontFamily=Helvetica;html=1;strokeColor=#003366;shadow=1;fillColor=#D4E1F5;fontColor=#003366" vertex="1" parent="1">
          <mxGeometry x="120" y="300" width="160" height="160" as="geometry" />
        </mxCell>
        <mxCell id="23" value="&lt;p style=&quot;margin: 0px; margin-top: 4px; text-align: center; text-decoration: underline;&quot;&gt;&lt;b&gt;Publication&lt;/b&gt;&lt;/p&gt;&lt;hr&gt;&lt;p style=&quot;margin: 0px; margin-left: 8px;&quot;&gt;Publication_id&lt;/p&gt;&lt;p style=&quot;margin: 0px; margin-left: 8px;&quot;&gt;Type&lt;/p&gt;&lt;p style=&quot;margin: 0px 0px 0px 8px;&quot;&gt;Status&lt;/p&gt;&lt;p style=&quot;margin: 0px; margin-left: 8px;&quot;&gt;Published_date&lt;br&gt;&lt;/p&gt;&lt;p style=&quot;margin: 0px; margin-left: 8px;&quot;&gt;&lt;span style=&quot;background-color: initial;&quot;&gt;Created_date&lt;/span&gt;&lt;br&gt;&lt;/p&gt;&lt;p style=&quot;margin: 0px; margin-left: 8px;&quot;&gt;Repost&lt;br&gt;&lt;/p&gt;&lt;p style=&quot;margin: 0px; margin-left: 8px;&quot;&gt;User_id&lt;/p&gt;&lt;p style=&quot;margin: 0px; margin-left: 8px;&quot;&gt;Original_user_id&lt;/p&gt;&lt;p style=&quot;margin: 0px; margin-left: 8px;&quot;&gt;Original_publication_id&lt;/p&gt;&lt;p style=&quot;margin: 0px; margin-left: 8px;&quot;&gt;Video_id&lt;/p&gt;&lt;p style=&quot;margin: 0px; margin-left: 8px;&quot;&gt;Text_id&lt;/p&gt;&lt;p style=&quot;margin: 0px; margin-left: 8px;&quot;&gt;Quote_id&lt;/p&gt;&lt;p style=&quot;margin: 0px; margin-left: 8px;&quot;&gt;Photo_id&lt;/p&gt;&lt;p style=&quot;margin: 0px; margin-left: 8px;&quot;&gt;Link_id&lt;/p&gt;" style="verticalAlign=top;align=left;overflow=fill;fontSize=12;fontFamily=Helvetica;html=1;strokeColor=#003366;shadow=1;fillColor=#D4E1F5;fontColor=#003366" vertex="1" parent="1">
          <mxGeometry x="440" y="200" width="160" height="240" as="geometry" />
        </mxCell>
        <mxCell id="25" value="&lt;p style=&quot;margin: 0px; margin-top: 4px; text-align: center; text-decoration: underline;&quot;&gt;&lt;strong&gt;User&lt;/strong&gt;&lt;/p&gt;&lt;hr&gt;&lt;p style=&quot;margin: 0px; margin-left: 8px;&quot;&gt;User_id&lt;/p&gt;&lt;p style=&quot;margin: 0px; margin-left: 8px;&quot;&gt;Email&lt;/p&gt;&lt;p style=&quot;margin: 0px; margin-left: 8px;&quot;&gt;Username&lt;/p&gt;&lt;p style=&quot;margin: 0px; margin-left: 8px;&quot;&gt;Password&lt;/p&gt;&lt;p style=&quot;margin: 0px; margin-left: 8px;&quot;&gt;Avatar&lt;/p&gt;&lt;p style=&quot;margin: 0px; margin-left: 8px;&quot;&gt;Created_date&lt;/p&gt;&lt;p style=&quot;margin: 0px; margin-left: 8px;&quot;&gt;&lt;span style=&quot;white-space: pre-wrap;&quot; data-src-align=&quot;0:8&quot; class=&quot;EzKURWReUAB5oZgtQNkl&quot;&gt;Subscription_user_id&lt;/span&gt;&lt;br&gt;&lt;/p&gt;" style="verticalAlign=top;align=left;overflow=fill;fontSize=12;fontFamily=Helvetica;html=1;strokeColor=#003366;shadow=1;fillColor=#D4E1F5;fontColor=#003366" vertex="1" parent="1">
          <mxGeometry x="240" y="664" width="160" height="160" as="geometry" />
        </mxCell>
        <mxCell id="35" value="&lt;p style=&quot;margin: 0px; margin-top: 4px; text-align: center; text-decoration: underline;&quot;&gt;&lt;strong&gt;Video&lt;/strong&gt;&lt;/p&gt;&lt;hr&gt;&lt;p style=&quot;margin: 0px; margin-left: 8px;&quot;&gt;Video_Id&lt;/p&gt;&lt;p style=&quot;margin: 0px; margin-left: 8px;&quot;&gt;Title&lt;/p&gt;&lt;p style=&quot;margin: 0px; margin-left: 8px;&quot;&gt;Url&lt;/p&gt;&lt;p style=&quot;margin: 0px; margin-left: 8px;&quot;&gt;Teg&lt;/p&gt;" style="verticalAlign=top;align=left;overflow=fill;fontSize=12;fontFamily=Helvetica;html=1;strokeColor=#003366;shadow=1;fillColor=#D4E1F5;fontColor=#003366" vertex="1" parent="1">
          <mxGeometry x="280" y="42.64" width="160" height="116.72" as="geometry" />
        </mxCell>
        <mxCell id="Bu_hMBb6ncxbFsUqz1-H-121" value="&lt;p style=&quot;margin: 0px; margin-top: 4px; text-align: center; text-decoration: underline;&quot;&gt;&lt;strong&gt;Text&lt;/strong&gt;&lt;/p&gt;&lt;hr&gt;&lt;p style=&quot;margin: 0px; margin-left: 8px;&quot;&gt;Text_Id&lt;/p&gt;&lt;p style=&quot;margin: 0px; margin-left: 8px;&quot;&gt;Title&lt;/p&gt;&lt;p style=&quot;margin: 0px; margin-left: 8px;&quot;&gt;Preview&lt;/p&gt;&lt;p style=&quot;margin: 0px; margin-left: 8px;&quot;&gt;&lt;span style=&quot;white-space: pre-wrap; background-color: initial;&quot;&gt;Content&lt;/span&gt;&lt;/p&gt;&lt;p style=&quot;margin: 0px; margin-left: 8px;&quot;&gt;&lt;span style=&quot;background-color: initial;&quot;&gt;Teg&lt;/span&gt;&lt;br&gt;&lt;/p&gt;" style="verticalAlign=top;align=left;overflow=fill;fontSize=12;fontFamily=Helvetica;html=1;strokeColor=#003366;shadow=1;fillColor=#D4E1F5;fontColor=#003366" vertex="1" parent="1">
          <mxGeometry x="600" y="41.640000000000015" width="160" height="120" as="geometry" />
        </mxCell>
        <mxCell id="Bu_hMBb6ncxbFsUqz1-H-126" value="&lt;p style=&quot;margin: 0px; margin-top: 4px; text-align: center; text-decoration: underline;&quot;&gt;&lt;b&gt;Quote&lt;/b&gt;&lt;/p&gt;&lt;hr&gt;&lt;p style=&quot;margin: 0px; margin-left: 8px;&quot;&gt;Quote_Id&lt;/p&gt;&lt;p style=&quot;margin: 0px; margin-left: 8px;&quot;&gt;&lt;span style=&quot;white-space: pre-wrap;&quot; data-src-align=&quot;0:5&quot; class=&quot;EzKURWReUAB5oZgtQNkl&quot;&gt;Author&lt;/span&gt;&lt;br&gt;&lt;/p&gt;&lt;p style=&quot;margin: 0px; margin-left: 8px;&quot;&gt;&lt;span style=&quot;white-space: pre-wrap;&quot;&gt;Content&lt;/span&gt;&lt;br&gt;&lt;/p&gt;&lt;p style=&quot;margin: 0px; margin-left: 8px;&quot;&gt;&lt;span style=&quot;background-color: initial;&quot;&gt;Teg&lt;/span&gt;&lt;/p&gt;" style="verticalAlign=top;align=left;overflow=fill;fontSize=12;fontFamily=Helvetica;html=1;strokeColor=#003366;shadow=1;fillColor=#D4E1F5;fontColor=#003366" vertex="1" parent="1">
          <mxGeometry x="640" y="200" width="160" height="120" as="geometry" />
        </mxCell>
        <mxCell id="En4P59nBTayrIF0M59aB-35" value="&lt;p style=&quot;margin: 0px; margin-top: 4px; text-align: center; text-decoration: underline;&quot;&gt;&lt;b&gt;Photo&lt;/b&gt;&lt;/p&gt;&lt;hr&gt;&lt;p style=&quot;margin: 0px; margin-left: 8px;&quot;&gt;Photo_Id&lt;/p&gt;&lt;p style=&quot;margin: 0px; margin-left: 8px;&quot;&gt;&lt;span style=&quot;white-space: pre-wrap;&quot; data-src-align=&quot;0:5&quot; class=&quot;EzKURWReUAB5oZgtQNkl&quot;&gt;Image&lt;/span&gt;&lt;/p&gt;&lt;p style=&quot;margin: 0px; margin-left: 8px;&quot;&gt;Teg&lt;/p&gt;" style="verticalAlign=top;align=left;overflow=fill;fontSize=12;fontFamily=Helvetica;html=1;strokeColor=#003366;shadow=1;fillColor=#D4E1F5;fontColor=#003366" vertex="1" parent="1">
          <mxGeometry x="600" y="480" width="160" height="121.64" as="geometry" />
        </mxCell>
        <mxCell id="En4P59nBTayrIF0M59aB-36" value="&lt;p style=&quot;margin: 0px; margin-top: 4px; text-align: center; text-decoration: underline;&quot;&gt;&lt;b&gt;Link&lt;/b&gt;&lt;/p&gt;&lt;hr&gt;&lt;p style=&quot;margin: 0px; margin-left: 8px;&quot;&gt;Link_Id&lt;/p&gt;&lt;p style=&quot;margin: 0px; margin-left: 8px;&quot;&gt;&lt;span style=&quot;white-space: pre-wrap;&quot; data-src-align=&quot;0:5&quot; class=&quot;EzKURWReUAB5oZgtQNkl&quot;&gt;Url&lt;/span&gt;&lt;/p&gt;&lt;p style=&quot;margin: 0px; margin-left: 8px;&quot;&gt;&lt;span style=&quot;white-space: pre-wrap;&quot; data-src-align=&quot;0:5&quot; class=&quot;EzKURWReUAB5oZgtQNkl&quot;&gt;Description&lt;/span&gt;&lt;/p&gt;&lt;p style=&quot;margin: 0px; margin-left: 8px;&quot;&gt;Teg&lt;/p&gt;" style="verticalAlign=top;align=left;overflow=fill;fontSize=12;fontFamily=Helvetica;html=1;strokeColor=#003366;shadow=1;fillColor=#D4E1F5;fontColor=#003366" vertex="1" parent="1">
          <mxGeometry x="280" y="481.64" width="160" height="120" as="geometry" />
        </mxCell>
        <mxCell id="KBRTVxKUymFoqiNVbtnT-36" value="" style="endArrow=ERone;html=1;rounded=0;startArrow=ERoneToMany;startFill=0;endFill=0;exitX=0.5;exitY=0;exitDx=0;exitDy=0;entryX=0;entryY=0.5;entryDx=0;entryDy=0;" edge="1" parent="1" source="23" target="Bu_hMBb6ncxbFsUqz1-H-121">
          <mxGeometry width="50" height="50" relative="1" as="geometry">
            <mxPoint x="495" y="150" as="sourcePoint" />
            <mxPoint x="545" y="99.99999999999999" as="targetPoint" />
            <Array as="points">
              <mxPoint x="520" y="102" />
            </Array>
          </mxGeometry>
        </mxCell>
        <mxCell id="KBRTVxKUymFoqiNVbtnT-37" value="" style="endArrow=ERone;html=1;rounded=0;startArrow=ERoneToMany;startFill=0;endFill=0;entryX=0;entryY=0.75;entryDx=0;entryDy=0;exitX=1;exitY=0.5;exitDx=0;exitDy=0;" edge="1" parent="1" source="19" target="23">
          <mxGeometry width="50" height="50" relative="1" as="geometry">
            <mxPoint x="380" y="360" as="sourcePoint" />
            <mxPoint x="430" y="310" as="targetPoint" />
          </mxGeometry>
        </mxCell>
        <mxCell id="KBRTVxKUymFoqiNVbtnT-38" value="" style="endArrow=ERone;html=1;rounded=0;startArrow=ERoneToMany;startFill=0;endFill=0;entryX=0.5;entryY=1;entryDx=0;entryDy=0;exitX=0;exitY=0.25;exitDx=0;exitDy=0;" edge="1" parent="1">
          <mxGeometry width="50" height="50" relative="1" as="geometry">
            <mxPoint x="440" y="263.5" as="sourcePoint" />
            <mxPoint x="360" y="160.36" as="targetPoint" />
            <Array as="points">
              <mxPoint x="360" y="264" />
            </Array>
          </mxGeometry>
        </mxCell>
        <mxCell id="KBRTVxKUymFoqiNVbtnT-39" value="" style="endArrow=ERone;html=1;rounded=0;startArrow=ERoneToMany;startFill=0;endFill=0;exitX=0.25;exitY=1;exitDx=0;exitDy=0;entryX=1;entryY=0.5;entryDx=0;entryDy=0;" edge="1" parent="1" source="23" target="En4P59nBTayrIF0M59aB-36">
          <mxGeometry width="50" height="50" relative="1" as="geometry">
            <mxPoint x="450" y="530" as="sourcePoint" />
            <mxPoint x="500" y="480" as="targetPoint" />
            <Array as="points">
              <mxPoint x="480" y="542" />
            </Array>
          </mxGeometry>
        </mxCell>
        <mxCell id="KBRTVxKUymFoqiNVbtnT-40" value="" style="endArrow=ERone;html=1;rounded=0;startArrow=ERoneToMany;startFill=0;endFill=0;entryX=0;entryY=0.5;entryDx=0;entryDy=0;exitX=0.75;exitY=1;exitDx=0;exitDy=0;" edge="1" parent="1" source="23" target="En4P59nBTayrIF0M59aB-35">
          <mxGeometry width="50" height="50" relative="1" as="geometry">
            <mxPoint x="530" y="510" as="sourcePoint" />
            <mxPoint x="580" y="460" as="targetPoint" />
            <Array as="points">
              <mxPoint x="560" y="541" />
            </Array>
          </mxGeometry>
        </mxCell>
        <mxCell id="KBRTVxKUymFoqiNVbtnT-41" value="" style="endArrow=ERone;html=1;rounded=0;startArrow=ERoneToMany;startFill=0;endFill=0;entryX=0;entryY=0.5;entryDx=0;entryDy=0;exitX=1;exitY=0.25;exitDx=0;exitDy=0;" edge="1" parent="1" source="23" target="Bu_hMBb6ncxbFsUqz1-H-126">
          <mxGeometry width="50" height="50" relative="1" as="geometry">
            <mxPoint x="620" y="430" as="sourcePoint" />
            <mxPoint x="670" y="380" as="targetPoint" />
          </mxGeometry>
        </mxCell>
        <mxCell id="KBRTVxKUymFoqiNVbtnT-42" value="" style="endArrow=ERone;html=1;rounded=0;startArrow=ERoneToMany;startFill=0;endFill=0;entryX=1;entryY=0.25;entryDx=0;entryDy=0;exitX=0.5;exitY=1;exitDx=0;exitDy=0;" edge="1" parent="1" source="23" target="25">
          <mxGeometry width="50" height="50" relative="1" as="geometry">
            <mxPoint x="430" y="720" as="sourcePoint" />
            <mxPoint x="590" y="720" as="targetPoint" />
            <Array as="points">
              <mxPoint x="520" y="704" />
            </Array>
          </mxGeometry>
        </mxCell>
        <mxCell id="KBRTVxKUymFoqiNVbtnT-47" value="&lt;p style=&quot;margin: 0px; margin-top: 4px; text-align: center; text-decoration: underline;&quot;&gt;&lt;b&gt;Like&lt;/b&gt;&lt;/p&gt;&lt;hr&gt;&lt;p style=&quot;margin: 0px; margin-left: 8px;&quot;&gt;Like_id&lt;br&gt;Publication_id&lt;/p&gt;&lt;p style=&quot;margin: 0px; margin-left: 8px;&quot;&gt;User_id&lt;/p&gt;" style="verticalAlign=top;align=left;overflow=fill;fontSize=12;fontFamily=Helvetica;html=1;strokeColor=#003366;shadow=1;fillColor=#D4E1F5;fontColor=#003366" vertex="1" parent="1">
          <mxGeometry x="666" y="721.64" width="160" height="118.36" as="geometry" />
        </mxCell>
        <mxCell id="KBRTVxKUymFoqiNVbtnT-48" value="" style="endArrow=ERone;html=1;rounded=0;startArrow=ERoneToMany;startFill=0;endFill=0;entryX=0;entryY=0.5;entryDx=0;entryDy=0;exitX=0.5;exitY=1;exitDx=0;exitDy=0;" edge="1" parent="1" source="19" target="25">
          <mxGeometry width="50" height="50" relative="1" as="geometry">
            <mxPoint x="70" y="570" as="sourcePoint" />
            <mxPoint x="190" y="440" as="targetPoint" />
            <Array as="points">
              <mxPoint x="200" y="744" />
            </Array>
          </mxGeometry>
        </mxCell>
        <mxCell id="KBRTVxKUymFoqiNVbtnT-49" value="" style="endArrow=ERone;html=1;rounded=0;startArrow=ERoneToMany;startFill=0;endFill=0;entryX=1;entryY=0.75;entryDx=0;entryDy=0;exitX=0.75;exitY=0;exitDx=0;exitDy=0;" edge="1" parent="1" source="KBRTVxKUymFoqiNVbtnT-47" target="23">
          <mxGeometry width="50" height="50" relative="1" as="geometry">
            <mxPoint x="920" y="725.6399999999999" as="sourcePoint" />
            <mxPoint x="600" y="384" as="targetPoint" />
            <Array as="points">
              <mxPoint x="786" y="380" />
            </Array>
          </mxGeometry>
        </mxCell>
        <mxCell id="KBRTVxKUymFoqiNVbtnT-50" value="" style="endArrow=ERone;html=1;rounded=0;startArrow=ERoneToMany;startFill=0;endFill=0;entryX=1;entryY=0.75;entryDx=0;entryDy=0;exitX=0;exitY=0.5;exitDx=0;exitDy=0;" edge="1" parent="1" source="KBRTVxKUymFoqiNVbtnT-47" target="25">
          <mxGeometry width="50" height="50" relative="1" as="geometry">
            <mxPoint x="540" y="803" as="sourcePoint" />
            <mxPoint x="450" y="834.1800000000001" as="targetPoint" />
            <Array as="points" />
          </mxGeometry>
        </mxCell>
      </root>
    </mxGraphModel>
  </diagram>
</mxfile>
